<?xml version="1.0" encoding="UTF-8"?>
<svg id="Layer_1" data-name="Layer 1" xmlns="http://www.w3.org/2000/svg" viewBox="0 0 350 75">
  <defs>
    <style>
      .cls-1 {
        fill: #0a8ee0;
      }

      .cls-2 {
        fill-rule: evenodd;
      }
    </style>
  </defs>
  <g>
    <path d="M28.92,71.36c-.48,0-.92-.1-1.34-.31-.42-.2-.77-.47-1.07-.8v-.48c.29.35.65.64,1.07.86.42.22.86.34,1.32.34.61,0,1.1-.15,1.47-.44.37-.29.56-.7.56-1.22,0-.27-.06-.51-.17-.72-.11-.21-.29-.4-.54-.59-.25-.18-.58-.37-1.02-.56l-.88-.41c-.56-.25-.97-.54-1.25-.85-.27-.32-.41-.69-.41-1.12,0-.36.09-.68.28-.97.19-.29.45-.52.79-.68.34-.16.73-.25,1.18-.25s.85.08,1.2.25.66.38.92.64v.46c-.3-.31-.62-.54-.97-.7-.35-.16-.73-.25-1.15-.25-.55,0-.99.13-1.32.4-.33.27-.5.62-.5,1.06,0,.37.12.68.35.93.23.26.61.51,1.14.77l.9.41c.67.31,1.15.63,1.44.97.29.33.43.73.43,1.19,0,.42-.1.79-.31,1.11-.2.31-.49.55-.86.72-.37.17-.79.25-1.27.25Z"/>
    <path d="M35.27,71.33c-.55,0-1.03-.13-1.45-.39-.41-.26-.73-.62-.95-1.08s-.33-.99-.33-1.59c0-.55.1-1.04.31-1.47.2-.43.5-.77.9-1.02.39-.25.86-.37,1.4-.37.48,0,.88.1,1.22.31s.59.5.76.87c.17.37.26.8.26,1.28v.34h-4.6v-.34h4.31l-.08.16v-.15c0-.41-.07-.77-.21-1.09-.14-.32-.35-.57-.64-.75-.28-.18-.63-.27-1.04-.27-.45,0-.84.1-1.17.31-.32.21-.57.5-.74.87s-.26.8-.26,1.28v.07c0,.8.22,1.44.64,1.93.42.49.99.74,1.71.74.39,0,.75-.07,1.08-.2.32-.13.61-.32.85-.55v.38c-.25.22-.53.4-.87.54-.33.13-.7.2-1.1.2Z"/>
    <path d="M38.99,71.17v-5.59h.39v5.59h-.39ZM39.26,67.96c0-.75.15-1.36.44-1.81.29-.45.69-.68,1.2-.68.13,0,.25.01.36.04.1.03.2.07.3.12h.01v.39c-.2-.12-.45-.18-.74-.18-.45,0-.8.2-1.07.6-.26.4-.4.91-.4,1.53h-.11Z"/>
    <path d="M44.36,71.21l-2.19-5.63h.41l2.06,5.38h-.19l2.11-5.38h.4l-2.23,5.63h-.37Z"/>
    <path d="M48.58,64.24c-.08,0-.15-.03-.21-.09s-.09-.13-.09-.21.03-.15.09-.21c.06-.06.13-.08.21-.08.09,0,.16.03.22.08.06.06.09.12.09.21s-.03.15-.09.21c-.06.06-.13.09-.22.09ZM48.39,71.17v-5.59h.39v5.59h-.39Z"/>
    <path d="M53.15,71.33c-.54,0-1.02-.13-1.43-.4-.41-.26-.72-.62-.94-1.08-.22-.45-.33-.96-.33-1.52s.11-1.05.34-1.49c.22-.44.54-.79.96-1.05.42-.26.9-.39,1.45-.39.36,0,.68.05.96.15.28.1.54.24.76.42v.42c-.24-.22-.5-.38-.77-.48-.28-.1-.58-.16-.93-.16-.48,0-.9.11-1.26.34-.36.22-.63.53-.82.92-.19.39-.28.83-.28,1.32s.09.95.28,1.35c.19.4.46.71.81.94.35.23.78.35,1.27.35.34,0,.66-.06.95-.17.29-.12.55-.27.78-.47v.38c-.24.2-.51.36-.8.46-.3.11-.63.16-.98.16Z"/>
    <path d="M56.69,64.24c-.08,0-.15-.03-.21-.09s-.09-.13-.09-.21.03-.15.09-.21c.06-.06.13-.08.21-.08.09,0,.16.03.22.08.06.06.09.12.09.21s-.03.15-.09.21c-.06.06-.13.09-.22.09ZM56.5,71.17v-5.59h.39v5.59h-.39Z"/>
    <path d="M61.17,71.32c-.51,0-.96-.13-1.35-.39-.39-.26-.7-.62-.92-1.07-.22-.45-.33-.95-.33-1.5s.11-1.05.33-1.5.53-.8.92-1.06c.39-.26.85-.39,1.35-.39s.96.13,1.35.39c.39.26.7.61.92,1.06.22.45.33.95.33,1.5s-.11,1.05-.33,1.5c-.22.45-.53.81-.92,1.07-.39.26-.85.39-1.35.39ZM61.17,70.95c.43,0,.82-.11,1.15-.34s.59-.54.78-.93c.18-.39.27-.83.27-1.32s-.09-.92-.27-1.31-.44-.7-.78-.92-.72-.34-1.15-.34-.82.11-1.15.34-.6.53-.78.92c-.19.39-.28.83-.28,1.31s.09.92.28,1.32c.19.39.45.71.78.93s.72.34,1.15.34Z"/>
    <path d="M68.43,71.17v-7.82h2.41c.49,0,.91.09,1.25.27.34.18.6.44.78.77.18.33.27.71.27,1.15s-.1.83-.28,1.17-.47.6-.85.79c-.38.19-.84.28-1.38.28h-1.88v-.36h1.88c.67,0,1.18-.17,1.54-.51.36-.34.54-.79.54-1.37s-.17-1.02-.5-1.35c-.33-.32-.8-.49-1.4-.49h-1.98v7.45h-.4Z"/>
    <path d="M74.53,71.17v-5.59h.39v5.59h-.39ZM74.81,67.96c0-.75.15-1.36.44-1.81.29-.45.69-.68,1.2-.68.13,0,.25.01.36.04.1.03.2.07.3.12h.01v.39c-.2-.12-.45-.18-.74-.18-.45,0-.8.2-1.07.6-.26.4-.4.91-.4,1.53h-.11Z"/>
    <path d="M80.35,71.33c-.55,0-1.03-.13-1.45-.39-.41-.26-.73-.62-.95-1.08s-.33-.99-.33-1.59c0-.55.1-1.04.31-1.47.2-.43.5-.77.9-1.02.39-.25.86-.37,1.4-.37.48,0,.88.1,1.22.31s.59.5.76.87c.17.37.26.8.26,1.28v.34h-4.6v-.34h4.31l-.08.16v-.15c0-.41-.07-.77-.21-1.09-.14-.32-.35-.57-.64-.75-.28-.18-.63-.27-1.04-.27-.45,0-.84.1-1.17.31-.32.21-.57.5-.74.87s-.26.8-.26,1.28v.07c0,.8.22,1.44.64,1.93.42.49.99.74,1.71.74.39,0,.75-.07,1.08-.2.32-.13.61-.32.85-.55v.38c-.25.22-.53.4-.87.54-.33.13-.7.2-1.1.2Z"/>
    <path d="M84.07,71.17v-5.59h.39v5.59h-.39ZM87.41,67.32c0-.5-.12-.89-.37-1.18-.25-.29-.6-.43-1.05-.43s-.84.18-1.12.55c-.28.37-.41.82-.41,1.36h-.13c.01-.67.18-1.21.5-1.63.32-.42.75-.63,1.29-.63.35,0,.65.08.9.24.25.16.44.39.58.69.13.3.2.65.2,1.06v3.81h-.38v-3.84ZM90.79,67.51c0-.58-.12-1.03-.37-1.34-.25-.31-.61-.46-1.08-.46s-.84.18-1.12.53c-.28.35-.42.79-.42,1.31h-.18c.01-.64.18-1.17.51-1.58.32-.41.76-.61,1.31-.61.36,0,.68.08.94.25s.46.4.59.71c.13.31.2.68.2,1.12v3.72h-.38v-3.65Z"/>
    <path d="M93.39,64.24c-.08,0-.15-.03-.21-.09s-.09-.13-.09-.21.03-.15.09-.21c.06-.06.13-.08.21-.08.09,0,.16.03.22.08.06.06.09.12.09.21s-.03.15-.09.21c-.06.06-.13.09-.22.09ZM93.2,71.17v-5.59h.39v5.59h-.39Z"/>
    <path d="M97.63,71.37c-.42,0-.79-.09-1.09-.27s-.53-.45-.69-.79c-.16-.35-.24-.76-.24-1.25v-3.47h.39v3.37c0,.66.15,1.17.45,1.53.3.37.72.55,1.27.55.6,0,1.06-.22,1.4-.67s.5-1.03.5-1.75v-3.03h.38v5.59h-.38v-2.03l.08.12c-.08.65-.3,1.16-.66,1.54-.36.38-.83.57-1.4.57Z"/>
    <path d="M102.06,71.17v-5.59h.39v5.59h-.39ZM105.4,67.32c0-.5-.12-.89-.37-1.18-.25-.29-.6-.43-1.05-.43s-.84.18-1.12.55c-.28.37-.41.82-.41,1.36h-.13c.01-.67.18-1.21.5-1.63.32-.42.75-.63,1.29-.63.35,0,.65.08.9.24.25.16.44.39.58.69.13.3.2.65.2,1.06v3.81h-.38v-3.84ZM108.78,67.51c0-.58-.12-1.03-.37-1.34-.25-.31-.61-.46-1.08-.46s-.84.18-1.12.53c-.28.35-.42.79-.42,1.31h-.18c.01-.64.18-1.17.51-1.58.32-.41.76-.61,1.31-.61.36,0,.68.08.94.25s.46.4.59.71c.13.31.2.68.2,1.12v3.72h-.38v-3.65Z"/>
  </g>
  <g>
    <path d="M228.87,71.09v-7.82h2.41c.49,0,.91.09,1.25.27.34.18.6.44.78.77.18.33.27.71.27,1.15s-.1.83-.28,1.17-.47.6-.85.79c-.38.19-.84.28-1.38.28h-1.88v-.36h1.88c.67,0,1.18-.17,1.54-.51.36-.34.54-.79.54-1.37s-.17-1.02-.5-1.35-.8-.49-1.4-.49h-1.98v7.45h-.4Z"/>
    <path d="M234.97,71.09v-5.59h.39v5.59h-.39ZM235.25,67.89c0-.75.15-1.36.44-1.81.29-.45.69-.68,1.2-.68.13,0,.25.01.36.04.1.03.2.07.3.12h.01v.39c-.2-.12-.45-.18-.74-.18-.45,0-.8.2-1.07.6-.26.4-.4.91-.4,1.53h-.11Z"/>
    <path d="M240.67,71.25c-.51,0-.96-.13-1.35-.39-.39-.26-.7-.62-.92-1.07-.22-.45-.33-.95-.33-1.5s.11-1.05.33-1.5.53-.8.92-1.06c.39-.26.85-.39,1.35-.39s.96.13,1.35.39c.39.26.7.61.92,1.06.22.45.33.95.33,1.5s-.11,1.05-.33,1.5c-.22.45-.53.81-.92,1.07-.39.26-.85.39-1.35.39ZM240.67,70.88c.43,0,.82-.11,1.15-.34s.59-.54.78-.93c.18-.39.27-.83.27-1.32s-.09-.92-.27-1.31-.44-.7-.78-.92-.72-.34-1.15-.34-.82.11-1.15.34-.6.53-.78.92c-.19.39-.28.83-.28,1.31s.09.92.28,1.32c.19.39.45.71.78.93s.72.34,1.15.34Z"/>
    <path d="M243.79,65.84v-.34h3.72v.34h-3.72ZM245.41,71.09v-7.36l.39-.15v7.51h-.39Z"/>
    <path d="M250.75,71.26c-.55,0-1.03-.13-1.45-.39-.41-.26-.73-.62-.95-1.08s-.33-.99-.33-1.59c0-.55.1-1.04.31-1.47.2-.43.5-.77.9-1.02.39-.25.86-.37,1.4-.37.48,0,.88.1,1.22.31s.59.5.76.87c.17.37.26.8.26,1.28v.34h-4.6v-.34h4.31l-.08.16v-.15c0-.41-.07-.77-.21-1.09-.14-.32-.35-.57-.64-.75-.28-.18-.63-.27-1.04-.27-.45,0-.84.1-1.17.31-.32.21-.57.5-.74.87s-.26.8-.26,1.28v.07c0,.8.22,1.44.64,1.93.42.49.99.74,1.71.74.39,0,.75-.07,1.08-.2.32-.13.61-.32.85-.55v.38c-.25.22-.53.4-.87.54-.33.13-.7.2-1.1.2Z"/>
    <path d="M256.74,71.26c-.54,0-1.02-.13-1.43-.4-.41-.26-.72-.62-.94-1.08-.22-.45-.33-.96-.33-1.52s.11-1.05.34-1.49c.22-.44.54-.79.96-1.05.42-.26.9-.39,1.45-.39.36,0,.68.05.96.15.28.1.54.24.76.42v.42c-.24-.22-.5-.38-.77-.48-.28-.1-.58-.16-.93-.16-.48,0-.9.11-1.26.34-.36.22-.63.53-.82.92-.19.39-.28.83-.28,1.32s.09.95.28,1.35c.19.4.46.71.81.94.35.23.78.35,1.27.35.34,0,.66-.06.95-.17.29-.12.55-.27.78-.47v.38c-.24.2-.51.36-.8.46-.3.11-.63.16-.98.16Z"/>
    <path d="M262.25,71.26c-.54,0-1.02-.13-1.43-.4-.41-.26-.72-.62-.94-1.08-.22-.45-.33-.96-.33-1.52s.11-1.05.34-1.49c.22-.44.54-.79.96-1.05.42-.26.9-.39,1.45-.39.36,0,.68.05.96.15.28.1.54.24.76.42v.42c-.24-.22-.5-.38-.77-.48-.28-.1-.58-.16-.93-.16-.48,0-.9.11-1.26.34-.36.22-.63.53-.82.92-.19.39-.28.83-.28,1.32s.09.95.28,1.35c.19.4.46.71.81.94.35.23.78.35,1.27.35.34,0,.66-.06.95-.17.29-.12.55-.27.78-.47v.38c-.24.2-.51.36-.8.46-.3.11-.63.16-.98.16Z"/>
    <path d="M265.79,64.17c-.08,0-.15-.03-.21-.09-.06-.06-.09-.13-.09-.21s.03-.15.09-.21c.06-.06.13-.08.21-.08.09,0,.16.03.22.08.06.06.09.12.09.21s-.03.15-.09.21c-.06.06-.13.09-.22.09ZM265.6,71.09v-5.59h.39v5.59h-.39Z"/>
    <path d="M270.27,71.25c-.51,0-.96-.13-1.35-.39-.39-.26-.7-.62-.92-1.07-.22-.45-.33-.95-.33-1.5s.11-1.05.33-1.5.53-.8.92-1.06c.39-.26.85-.39,1.35-.39s.96.13,1.35.39c.39.26.7.61.92,1.06.22.45.33.95.33,1.5s-.11,1.05-.33,1.5c-.22.45-.53.81-.92,1.07-.39.26-.85.39-1.35.39ZM270.27,70.88c.43,0,.82-.11,1.15-.34s.59-.54.78-.93c.18-.39.27-.83.27-1.32s-.09-.92-.27-1.31-.44-.7-.78-.92-.72-.34-1.15-.34-.82.11-1.15.34-.6.53-.78.92c-.19.39-.28.83-.28,1.31s.09.92.28,1.32c.19.39.45.71.78.93s.72.34,1.15.34ZM270.08,64.76l.77-1.41h.39l-.85,1.41h-.31Z"/>
    <path d="M274.49,71.09v-5.59h.39v5.59h-.39ZM278.54,67.76c0-.68-.14-1.19-.42-1.55-.28-.35-.71-.53-1.28-.53-.6,0-1.08.22-1.43.66-.35.44-.53,1.01-.53,1.71l-.09-.38c.04-.71.25-1.28.63-1.7.38-.43.89-.64,1.52-.64.42,0,.79.09,1.08.28.3.19.52.45.67.8.15.35.22.77.22,1.25v3.42h-.39v-3.33Z"/>
    <path d="M287.16,71.3c-.74,0-1.4-.18-1.98-.55s-1.02-.86-1.33-1.49c-.32-.63-.47-1.32-.47-2.09s.16-1.48.49-2.11c.33-.63.79-1.12,1.38-1.48s1.26-.54,2.02-.54c.47,0,.9.06,1.29.18s.74.3,1.06.52v.46c-.31-.25-.65-.44-1.03-.57-.38-.13-.82-.2-1.3-.2-.69,0-1.29.16-1.82.49-.53.32-.93.77-1.22,1.33-.29.57-.44,1.2-.44,1.9s.14,1.32.42,1.89.68,1.02,1.19,1.35c.51.33,1.1.49,1.77.49.48,0,.93-.08,1.35-.23.42-.15.78-.36,1.09-.63v.44c-.33.27-.7.47-1.12.61-.42.14-.86.21-1.34.21Z"/>
    <path d="M293.21,71.25c-.51,0-.96-.13-1.35-.39-.39-.26-.7-.62-.92-1.07-.22-.45-.33-.95-.33-1.5s.11-1.05.33-1.5.53-.8.92-1.06c.39-.26.85-.39,1.35-.39s.96.13,1.35.39c.39.26.7.61.92,1.06.22.45.33.95.33,1.5s-.11,1.05-.33,1.5c-.22.45-.53.81-.92,1.07-.39.26-.85.39-1.35.39ZM293.21,70.88c.43,0,.82-.11,1.15-.34s.59-.54.78-.93c.18-.39.27-.83.27-1.32s-.09-.92-.27-1.31-.44-.7-.78-.92-.72-.34-1.15-.34-.82.11-1.15.34-.6.53-.78.92c-.19.39-.28.83-.28,1.31s.09.92.28,1.32c.19.39.45.71.78.93s.72.34,1.15.34Z"/>
    <path d="M297.43,71.09v-5.59h.39v5.59h-.39ZM301.47,67.76c0-.68-.14-1.19-.42-1.55-.28-.35-.71-.53-1.28-.53-.6,0-1.08.22-1.43.66-.35.44-.53,1.01-.53,1.71l-.09-.38c.04-.71.25-1.28.63-1.7.38-.43.89-.64,1.52-.64.42,0,.79.09,1.08.28.3.19.52.45.67.8.15.35.22.77.22,1.25v3.42h-.39v-3.33Z"/>
    <path d="M303.03,65.84v-.34h3.34v.34h-3.34ZM304.04,71.09v-6.4c0-.57.14-1,.41-1.3.28-.3.64-.45,1.11-.45.22,0,.41.03.59.09s.33.14.46.23v.37c-.13-.11-.28-.2-.45-.26-.17-.06-.36-.09-.57-.09-.37,0-.65.12-.85.35s-.31.56-.31.99v6.47h-.39ZM307.76,64.17c-.08,0-.15-.03-.21-.09-.06-.06-.09-.13-.09-.21s.03-.15.09-.21c.06-.06.13-.08.21-.08.09,0,.16.03.22.08.06.06.09.12.09.21s-.03.15-.09.21c-.06.06-.13.09-.22.09ZM307.57,71.09v-5.59h.39v5.59h-.39Z"/>
    <path d="M311.55,71.23c-.37,0-.71-.08-1-.23-.29-.15-.52-.36-.68-.63s-.24-.56-.24-.88.08-.61.25-.87c.16-.26.4-.47.7-.61s.65-.22,1.04-.22c.48,0,.89.13,1.22.38s.51.56.54.93l-.07.25v-1.78c0-.59-.15-1.05-.45-1.37-.3-.33-.71-.49-1.24-.49-.37,0-.7.07-.99.22-.3.15-.55.35-.76.59v-.42c.2-.21.46-.39.77-.53.31-.15.65-.22,1.03-.22.42,0,.78.09,1.08.26.3.17.53.42.7.75.16.33.25.72.25,1.16v3.59h-.38v-1.6l.09.22c-.06.43-.26.79-.6,1.08-.34.29-.76.43-1.24.43ZM311.65,70.9c.31,0,.58-.07.84-.2.25-.13.45-.31.6-.54s.22-.47.22-.73c0-.39-.15-.72-.46-.97-.31-.25-.69-.38-1.15-.38-.5,0-.9.13-1.21.4-.31.26-.46.6-.46,1.01s.15.76.45,1.02c.3.26.69.4,1.17.4Z"/>
    <path d="M318.23,71.26c-.59,0-1.09-.21-1.5-.63-.41-.42-.67-.95-.77-1.6l.09-.2v2.26h-.39v-8.04h.39v4.73l-.08-.22c.07-.42.2-.79.41-1.13s.48-.6.8-.79c.33-.19.7-.29,1.12-.29.48,0,.9.13,1.26.39.36.26.65.61.85,1.06s.31.94.31,1.49-.11,1.08-.32,1.53-.51.81-.89,1.07c-.38.26-.81.39-1.28.39ZM318.16,70.9c.43,0,.81-.12,1.14-.35.33-.23.58-.55.76-.94s.27-.84.27-1.32-.09-.92-.26-1.32c-.18-.39-.42-.71-.74-.93-.32-.23-.69-.34-1.11-.34-.44,0-.82.11-1.15.34-.33.23-.58.54-.76.94s-.27.84-.27,1.32.09.92.26,1.32.42.71.75.94c.32.23.69.35,1.11.35Z"/>
    <path d="M322.4,71.09v-8.04h.39v8.04h-.39Z"/>
    <path d="M327.19,71.26c-.55,0-1.03-.13-1.45-.39-.41-.26-.73-.62-.95-1.08s-.33-.99-.33-1.59c0-.55.1-1.04.31-1.47.2-.43.5-.77.9-1.02.39-.25.86-.37,1.4-.37.48,0,.88.1,1.22.31s.59.5.76.87c.17.37.26.8.26,1.28v.34h-4.6v-.34h4.31l-.08.16v-.15c0-.41-.07-.77-.21-1.09-.14-.32-.35-.57-.64-.75-.28-.18-.63-.27-1.04-.27-.45,0-.84.1-1.17.31-.32.21-.57.5-.74.87s-.26.8-.26,1.28v.07c0,.8.22,1.44.64,1.93.42.49.99.74,1.71.74.39,0,.75-.07,1.08-.2.32-.13.61-.32.85-.55v.38c-.25.22-.53.4-.87.54-.33.13-.7.2-1.1.2Z"/>
  </g>
  <g>
    <path d="M17.85,59.56v-20.52h2.84v20.52h-2.84ZM19.22,41.62v-2.58h11.26v2.58h-11.26ZM19.22,50v-2.52h10.67v2.52h-10.67Z"/>
    <path d="M34.41,59.56v-20.52h2.84v20.52h-2.84Z"/>
    <path d="M43,59.56v-20.52h7.91c1.23,0,2.31.25,3.24.76.93.51,1.65,1.21,2.15,2.1.51.89.76,1.89.76,3s-.27,2.17-.81,3.05c-.54.88-1.3,1.56-2.3,2.05-1,.49-2.17.73-3.52.73h-1.73v-1.29l8.85,10.11h-3.72l-8.44-10.2v-.82h4.46c1.39,0,2.44-.31,3.17-.92.72-.62,1.08-1.48,1.08-2.59s-.33-1.91-.98-2.51c-.66-.6-1.59-.89-2.8-.89h-4.48v17.94h-2.84Z"/>
    <path d="M61.41,59.56v-20.52h2.84v20.52h-2.84ZM62.78,41.62v-2.58h11.26v2.58h-11.26ZM62.78,50v-2.52h10.67v2.52h-10.67ZM62.78,59.56v-2.58h11.4v2.58h-11.4Z"/>
    <path d="M78.73,59.56v-20.52h2.84v20.52h-2.84ZM80.11,41.62v-2.58h11.26v2.58h-11.26ZM80.11,50v-2.52h10.67v2.52h-10.67Z"/>
    <path d="M95.29,59.56v-20.52h2.84v20.52h-2.84ZM96.67,59.56v-2.7h10.82v2.7h-10.82Z"/>
    <path d="M113.29,59.56v-7.68l-7.12-12.84h3.11l6.16,11.37-1.44-.03,6.27-11.34h3.17l-7.3,12.84v7.68h-2.84Z"/>
  </g>
  <g>
    <path d="M259.18,50.67l1.76-7.77c.6-2.6-.39-4.01-2.08-4.01-2.64,0-4.64,2.78-4.64,7.18,0,1.13.28,2.18.84,2.99l-2.04.81c-.7-1.09-1.05-2.43-1.05-3.8,0-5.42,2.88-9.07,7.1-9.07,2.25,0,5.17,1.37,4.19,5.91l-1.83,8.2c-.88,3.8.07,6.47,2.57,6.47,5.77,0,9.74-13.26,9.04-19.49l2.36-.21c.56,5.52-2.92,21.63-11.5,21.63-4.22,0-5.91-3.69-4.71-8.83Z"/>
    <path d="M275.82,53.17c0-4.78,3.17-8.51,7.88-8.51,3.76,0,6.05,2.71,6.05,6.16,0,1.69-.35,3.27-1.05,4.61.35.11.88.21,1.55.21,1.41,0,3.27-.6,4.5-3.06l1.65.81c-1.3,2.78-3.76,4.15-6.65,4.15-.88,0-1.65-.18-2.29-.39-1.37,1.48-3.24,2.32-5.45,2.32-3.8,0-6.16-2.71-6.19-6.3ZM287.43,50.96c-.04-2.46-1.37-4.33-3.9-4.33-3.24,0-5.35,2.92-5.35,6.44,0,2.57,1.44,4.43,3.94,4.43,3.1,0,5.31-2.81,5.31-6.54Z"/>
    <path d="M294.74,51.41l.21-2.29c.95-9.15,3.9-14.28,9.04-14.28,2.6,0,4.57,1.72,4.57,4.4,0,3.83-4.29,9.95-11.64,13.08-.11,3.41,1.62,5.21,4.54,5.21,3.48,0,5.73-2.67,6.96-4.96l1.65.81c-1.3,2.64-4.22,6.12-8.86,6.12s-7-3.2-6.47-8.09ZM306.25,39.31c0-1.48-.84-2.46-2.39-2.46-3.41,0-5.73,4.85-6.61,12.42l-.07.74c6.02-2.95,9.07-7.88,9.07-10.69Z"/>
    <path d="M308.25,53.42l.98-6.37h-2.6l.28-2.04h2.64l.77-4.85h2.36l-.77,4.85h4.78l-.28,2.04h-4.82l-.98,6.12c-.53,3.09.53,4.29,2.78,4.29s4.54-2,5.91-4.89l1.65.81c-1.76,3.66-4.64,6.12-8.05,6.12-2.81,0-5.38-1.51-4.64-6.08Z"/>
    <path d="M317.68,54.33c-.14-.53-.28-1.2-.39-1.83l1.97-.42.07.42c1.09-2.15,3.59-7.21,7.32-8.86l1.55,1.06c-.56,1.16-.42,2.71-.28,3.24.28,2.43,1.02,3.97,1.02,6.12,0,3.48-2.25,5.45-5.35,5.45-2.5,0-4.78-1.2-5.91-5.17ZM319.65,53.66c.84,2.78,2.15,3.9,3.8,3.9,2.14,0,3.17-1.51,3.17-3.66,0-1.93-.7-3.52-.88-5.77-.07-.28-.14-.95-.14-1.65-2.04,1.51-3.62,4.71-4.64,6.89-.11.21-1.16-.21-1.51-.53l.21.81Z"/>
  </g>
  <g>
    <g>
      <path d="M188.56,37.34h2.61v6.47c0,.7-.56,1.26-1.26,1.26h-.09c-.7,0-1.26-.56-1.26-1.26v-6.47h0Z" transform="translate(363.54 -45.89) rotate(141.12)"/>
      <path d="M182.76,42.02h2.61v6.47c0,.7-.56,1.26-1.26,1.26h-.09c-.7,0-1.26-.56-1.26-1.26v-6.47h0Z" transform="translate(356.15 -33.96) rotate(141.11)"/>
    </g>
    <path d="M185.28,54.7l3.72,4.61c1.34,1.66,3.67,2.02,5.44.95l.7.87c.86,1.07,2.43,1.24,3.5.37l1.26-1.01c4.53,4.7,11.67,6.7,18.07,4.88,7.42-2.11,12.94-8.18,14.86-15.53,6.72,2.21,14.18.62,20.43-2.66,1.18-.62.26-2.47-.92-1.85-5.82,3.05-12.87,4.63-19.08,2.49.61-3.59.46-7.32-.47-10.84-.82-3.13-2.96-7.18-6.86-6.41-1.84.36-3.33,1.79-4.04,3.49-.76,1.81-.54,3.9.08,5.71,1.23,3.62,3.99,6.59,7.27,8.48.54.31,1.09.58,1.64.84-.24.96-.53,1.91-.9,2.83-2.57,6.48-8.71,11.42-15.73,12.03-4.7.41-9.46-1.45-12.73-4.78l1.42-1.14c1.07-.86,1.24-2.43.37-3.5l-.7-.87c1.42-1.51,1.56-3.86.23-5.52l-3.72-4.61c-.76-.94-2.13-1.09-3.07-.33l-10.45,8.43c-.94.76-1.09,2.13-.33,3.07ZM231.31,46.99c-.74-.37-1.48-.78-2.19-1.27-2.66-1.84-4.97-4.67-5.54-7.92-.28-1.59-.01-3.3,1.24-4.42,1.1-.98,2.59-1.11,3.74-.14,1.14.96,1.74,2.5,2.12,3.89.44,1.59.72,3.23.83,4.88.11,1.66.04,3.33-.21,4.98Z"/>
  </g>
  <g>
    <g>
      <path class="cls-1" d="M166.56,41.12v4.2c0,6.98-5.66,12.63-12.64,12.63s-12.64-5.66-12.64-12.63v-4.21c2.66-4.17,7.33-6.93,12.64-6.93s9.99,2.77,12.64,6.94Z"/>
      <g>
        <g>
          <path d="M153.91,59.05c-7.57,0-13.73-6.15-13.73-13.72v-24.11c0-.09,0-.17,0-.26.03-1.52.3-3.01.82-4.43.91-2.5,2.53-4.68,4.67-6.29,2.39-1.79,5.24-2.74,8.23-2.74s5.84.95,8.23,2.74c.52.39,1.02.82,1.48,1.28,1.41,1.41,2.52,3.14,3.2,5.01.52,1.42.79,2.92.82,4.44,0,.07,0,.16,0,.25v24.11c0,7.56-6.16,13.72-13.73,13.72ZM153.91,9.67c-2.52,0-4.92.8-6.93,2.3-1.81,1.36-3.17,3.19-3.94,5.29-.44,1.2-.67,2.45-.69,3.73v.02c0,.06,0,.13,0,.2v24.11c0,6.37,5.18,11.55,11.55,11.55s11.56-5.18,11.56-11.55v-24.11c0-.07,0-.13,0-.2-.02-1.3-.25-2.55-.69-3.75-.57-1.57-1.5-3.03-2.69-4.22-.39-.39-.81-.75-1.24-1.08-2.01-1.5-4.41-2.3-6.93-2.3Z"/>
          <g>
            <g>
              <path d="M172.67,31.28c-6.6,0-13.32-3.29-20-9.83-.27-.27-.39-.66-.3-1.03.09-.37.37-.67.74-.78l46.94-14.3c.41-.12.85,0,1.13.32.28.32.35.77.18,1.16-.09.21-2.34,5.31-6.5,10.85-5.57,7.42-11.93,12-18.37,13.25-1.27.25-2.54.37-3.82.37ZM155.53,21.16c6.98,6.35,13.88,8.91,20.53,7.61,7.46-1.45,13.37-7.54,17.03-12.39,2.4-3.18,4.16-6.27,5.2-8.25l-42.76,13.03Z"/>
              <path d="M173.68,36.57c-.57,0-1.14-.02-1.7-.07-7.49-.67-13.91-5.64-19.1-14.79-.19-.33-.19-.74,0-1.08.19-.33.54-.54.93-.55l46.13-.68c.43-.01.81.23,1,.62.18.38.13.84-.14,1.16-.14.17-3.51,4.19-8.72,8.12-6.35,4.78-12.67,7.27-18.4,7.27ZM155.72,22.23c4.62,7.47,10.15,11.54,16.45,12.1,10.83.96,21.32-8.61,25.29-12.72l-41.74.62Z"/>
            </g>
            <g>
              <path d="M135.16,31.28c-1.28,0-2.55-.12-3.82-.37-6.45-1.25-12.8-5.84-18.37-13.25-4.16-5.54-6.41-10.64-6.5-10.85-.17-.39-.1-.84.18-1.16.28-.32.72-.44,1.13-.32l46.94,14.3c.37.11.65.41.74.78.09.37-.02.77-.3,1.03-6.69,6.54-13.4,9.83-20,9.83ZM109.54,8.14c1.04,1.98,2.8,5.07,5.2,8.25,3.65,4.85,9.57,10.94,17.03,12.39,6.65,1.29,13.55-1.27,20.53-7.61l-42.76-13.03Z"/>
              <path d="M134.15,36.57c-5.73,0-12.05-2.49-18.4-7.27-5.21-3.92-8.58-7.95-8.72-8.12-.27-.33-.33-.78-.14-1.16.18-.38.57-.63,1-.62l46.13.68c.38,0,.74.21.93.55.19.33.19.74,0,1.08-5.18,9.15-11.61,14.12-19.1,14.79-.56.05-1.13.07-1.7.07ZM110.37,21.62c3.97,4.11,14.46,13.68,25.29,12.72,6.3-.56,11.82-4.63,16.45-12.1l-41.74-.62Z"/>
            </g>
          </g>
        </g>
        <g>
          <path d="M161.49,12.19c-.26,0-.52-.09-.73-.28-.44-.4-.47-1.09-.07-1.53l.39-.42c1.29-1.42,1.82-3.38,1.4-5.25l-.15-.71c-.13-.59.24-1.16.83-1.29.59-.13,1.17.24,1.29.83l.15.71c.57,2.56-.15,5.25-1.92,7.18l-.39.42c-.21.23-.51.35-.8.35Z"/>
          <path d="M146.34,12.19c-.29,0-.59-.12-.8-.35l-.39-.42c-1.77-1.94-2.49-4.62-1.92-7.19l.16-.7c.13-.59.71-.96,1.3-.83.59.13.96.71.83,1.29l-.16.71c-.42,1.87.11,3.84,1.4,5.25l.39.42c.4.44.37,1.13-.07,1.53-.21.19-.47.28-.73.28Z"/>
        </g>
      </g>
    </g>
    <polygon class="cls-2" points="156.83 36.57 149.6 47.12 153.54 45.96 151 53.23 158.23 42.68 154.28 43.84 156.83 36.57"/>
  </g>
</svg>