<?xml version="1.0" encoding="UTF-8"?>
<svg id="Layer_1" data-name="Layer 1" xmlns="http://www.w3.org/2000/svg" viewBox="0 0 160 160">
  <defs>
    <style>
      .cls-1 {
        fill: #0a8ee0;
      }

      .cls-2, .cls-3 {
        fill-rule: evenodd;
      }

      .cls-3 {
        fill: none;
        stroke: #000;
        stroke-linecap: round;
        stroke-linejoin: round;
        stroke-width: 1.82px;
      }
    </style>
  </defs>
  <polygon class="cls-2" points="85.74 46.34 75.56 61.18 81.11 59.55 77.53 69.78 87.71 54.94 82.16 56.57 85.74 46.34"/>
  <g>
    <path d="M45.22,41.06l-6.89-13.61,1.89-.96,6.89,13.61-1.89.96ZM40.11,28.7l-.87-1.71,7.46-3.78.87,1.71-7.46,3.78ZM42.93,34.26l-.85-1.67,7.08-3.59.85,1.67-7.08,3.59Z"/>
    <path d="M55.97,36.09l-5.13-14.36,1.99-.71,5.13,14.36-1.99.71Z"/>
    <path d="M61.52,34.11l-3.15-14.92,5.76-1.22c.9-.19,1.72-.17,2.47.06.75.23,1.38.62,1.89,1.19.51.57.84,1.26,1.02,2.07.18.84.14,1.62-.12,2.34-.26.72-.71,1.34-1.36,1.85-.65.51-1.46.87-2.45,1.07l-1.26.27-.2-.94,7.99,6-2.71.57-7.71-6.12-.13-.6,3.24-.68c1.01-.21,1.73-.6,2.16-1.16.43-.56.56-1.24.39-2.05-.17-.78-.53-1.34-1.1-1.67-.57-.33-1.29-.41-2.17-.22l-3.26.69,2.76,13.05-2.07.44Z"/>
    <path d="M74.34,31.77l-.46-15.25,2.11-.06.46,15.25-2.11.06ZM74.96,18.41l-.06-1.92,8.36-.25.06,1.92-8.36.25ZM75.15,24.64l-.06-1.87,7.93-.24.06,1.87-7.93.24ZM75.36,31.74l-.06-1.92,8.47-.26.06,1.92-8.47.26Z"/>
    <path d="M86.6,31.73l2.09-15.11,2.09.29-2.09,15.11-2.09-.29ZM88.59,24.83l.26-1.86,7.86,1.09-.26,1.86-7.86-1.09ZM89.44,18.66l.26-1.9,8.29,1.15-.26,1.9-8.29-1.15Z"/>
    <path d="M98.16,33.65l4.47-14.58,2.02.62-4.47,14.58-2.02-.62ZM99.14,33.96l.59-1.92,7.69,2.36-.59,1.92-7.69-2.36Z"/>
    <path d="M110.23,37.98l2.45-5.16-.69-10.89,2.09.99.51,9.6-.96-.48,7.83-5.62,2.13,1.01-9,6.29-2.45,5.16-1.91-.91Z"/>
  </g>
  <g>
    <path d="M58.05,46.87c-.26.12-.52.18-.8.17-.28,0-.54-.06-.78-.16l-.12-.26c.24.12.51.18.79.2.29.01.55-.04.8-.15.33-.15.56-.35.69-.6s.13-.52,0-.8c-.07-.14-.16-.26-.27-.34-.11-.08-.26-.14-.44-.18-.18-.04-.41-.05-.69-.05h-.58c-.36,0-.66-.05-.89-.15-.23-.1-.39-.27-.5-.5-.09-.19-.12-.39-.09-.59s.11-.39.25-.57c.14-.17.33-.32.57-.43s.48-.17.71-.17c.23,0,.45.04.66.11l.11.25c-.24-.09-.47-.14-.7-.14s-.46.05-.68.16c-.3.14-.5.32-.61.55s-.11.46,0,.7c.09.2.23.34.42.42.19.08.46.12.81.13h.59c.44,0,.78.05,1.02.16.24.11.41.28.53.53.11.23.14.45.11.67-.03.22-.13.42-.28.6s-.36.33-.62.45Z"/>
    <path d="M61.44,45.42c-.31.12-.6.15-.89.09-.29-.06-.54-.19-.76-.4s-.4-.48-.52-.81c-.12-.31-.17-.6-.15-.88.02-.28.11-.54.28-.76.17-.22.4-.39.7-.5.26-.1.51-.13.74-.09.23.04.43.15.61.32.17.17.31.39.42.66l.07.19-2.55.99-.07-.19,2.39-.93v.1s-.04-.08-.04-.08c-.09-.23-.21-.41-.35-.56s-.32-.24-.51-.28c-.2-.04-.41-.02-.64.07-.25.1-.45.24-.58.42-.13.19-.21.4-.22.64-.01.24.03.5.13.77v.04c.19.44.45.75.78.94.34.18.71.2,1.11.04.22-.08.4-.2.55-.34.15-.14.27-.31.36-.49l.08.21c-.09.18-.21.34-.37.48-.15.15-.34.26-.57.35Z"/>
    <path d="M63.43,44.6l-1.03-3.16.22-.07.32.97.02.05.7,2.14-.22.07ZM63,42.73c-.14-.43-.17-.79-.09-1.1.08-.31.27-.51.55-.61.08-.02.15-.04.21-.04.06,0,.13,0,.19.01h0s.07.22.07.22c-.14-.03-.29-.02-.45.04-.25.08-.42.26-.49.54-.08.28-.06.59.06.94h-.07Z"/>
    <path d="M66.44,43.71l-2.13-2.89.24-.06,2.02,2.77-.11.03.37-3.42.23-.06-.4,3.58-.21.06Z"/>
    <path d="M67.91,39.07s-.09,0-.13-.02c-.04-.03-.07-.06-.08-.11-.01-.05,0-.09.02-.13.03-.04.06-.07.11-.08.05-.01.1,0,.14.02.04.02.07.06.08.11s0,.09-.02.13c-.03.04-.07.07-.12.08ZM68.71,43.11l-.73-3.24.23-.05.73,3.24-.23.05Z"/>
    <path d="M71.46,42.66c-.32.06-.61.03-.88-.08s-.49-.29-.67-.53c-.18-.24-.29-.53-.35-.86-.06-.32-.04-.63.04-.91.08-.28.24-.52.45-.72.22-.19.49-.32.81-.38.21-.04.4-.04.58-.01.18.03.34.08.49.17l.04.25c-.16-.1-.33-.17-.5-.2-.17-.03-.36-.03-.56,0-.28.05-.52.16-.7.33-.19.17-.31.38-.38.62s-.08.51-.03.8c.05.29.15.55.3.76.15.21.34.37.57.47s.49.12.78.07c.2-.04.38-.1.54-.2.16-.1.29-.22.41-.36l.04.22c-.12.14-.26.26-.42.36-.16.09-.35.16-.56.2Z"/>
    <path d="M72.92,38.17s-.09,0-.13-.04c-.04-.03-.06-.07-.07-.12,0-.05,0-.09.04-.13.03-.04.07-.06.12-.07.05,0,.1,0,.14.03s.06.07.07.11c0,.05,0,.09-.04.13s-.07.06-.12.07ZM73.35,42.27l-.44-3.29.23-.03.44,3.29-.23.03Z"/>
    <path d="M76.07,42.06c-.3.03-.57-.03-.82-.16-.25-.13-.45-.33-.6-.59-.15-.26-.24-.55-.27-.87-.03-.33.01-.63.12-.9s.27-.5.49-.67c.22-.17.48-.27.78-.3.3-.03.57.03.82.16.25.13.45.33.6.58.15.25.24.54.27.87.03.33-.01.63-.12.91-.11.28-.27.5-.49.68s-.48.27-.78.3ZM76.05,41.84c.26-.02.48-.11.66-.26.19-.15.32-.35.41-.59.09-.24.12-.51.1-.79s-.1-.54-.23-.76c-.13-.22-.3-.39-.51-.51-.21-.12-.44-.16-.7-.14-.26.02-.48.11-.66.26-.19.15-.33.34-.42.59-.09.24-.12.5-.1.79.02.29.1.54.23.77.13.22.3.4.51.51s.44.17.7.14Z"/>
    <path d="M80.26,41.76l.07-4.65,1.44.02c.29,0,.54.06.74.17s.36.27.46.46c.1.2.15.43.15.68,0,.26-.06.49-.18.69s-.29.35-.51.46c-.23.11-.5.16-.82.16l-1.12-.02v-.21s1.12.02,1.12.02c.4,0,.71-.09.92-.29.22-.2.33-.47.33-.81,0-.34-.09-.61-.28-.8s-.47-.3-.83-.3l-1.18-.02-.06,4.43h-.24Z"/>
    <path d="M83.83,41.86l.22-3.31.23.02-.07,1.01v.05s-.16,2.25-.16,2.25l-.23-.02ZM84.12,39.97c.03-.45.14-.8.33-1.06.19-.26.44-.38.74-.36.08,0,.15.02.21.04.06.02.12.05.17.08h0s-.02.23-.02.23c-.11-.08-.26-.12-.43-.14-.27-.02-.48.09-.66.32-.17.23-.27.53-.3.89h-.07Z"/>
    <path d="M87.21,42.27c-.33-.04-.6-.15-.83-.33s-.39-.42-.49-.71c-.1-.29-.13-.61-.08-.96.04-.33.13-.61.28-.85.15-.24.35-.42.6-.54.25-.12.53-.16.85-.12.28.03.51.12.7.27s.31.34.39.57c.08.23.1.49.06.78l-.02.2-2.72-.32.02-.2,2.55.3-.06.09v-.09c.04-.24.02-.46-.04-.66-.06-.2-.17-.36-.32-.49-.15-.13-.35-.21-.59-.23-.27-.03-.51,0-.71.1-.21.1-.37.25-.5.46-.12.21-.21.45-.24.74v.04c-.06.47.02.87.24,1.19.21.32.53.5.96.55.23.03.45.01.65-.04.2-.06.38-.14.54-.26l-.03.22c-.16.11-.34.2-.55.26-.21.06-.43.07-.66.04Z"/>
    <path d="M89.32,42.43l.66-3.26.23.05-.17.82v.03s-.49,2.41-.49,2.41l-.23-.05ZM91.72,40.58c.06-.29.03-.53-.08-.73-.11-.2-.3-.32-.56-.37-.27-.06-.51,0-.72.19s-.34.43-.4.74l-.08-.02c.09-.39.25-.69.48-.89.23-.21.51-.28.83-.21.2.04.37.12.5.25.13.12.21.28.25.47.04.19.04.4,0,.64l-.45,2.22-.22-.04.45-2.24ZM93.67,41.09c.07-.34.05-.61-.06-.82-.11-.21-.3-.34-.58-.4-.27-.06-.51,0-.72.18-.2.17-.34.41-.4.72l-.1-.02c.08-.37.24-.66.48-.86s.52-.27.84-.2c.21.04.39.13.52.25.13.13.22.29.26.48.04.2.04.42-.01.68l-.44,2.17-.22-.04.43-2.13Z"/>
    <path d="M94.56,43.59l.86-3.21.22.06-.86,3.21-.22-.06ZM95.74,39.64s-.08-.04-.11-.08-.03-.09-.02-.14c.01-.05.04-.08.08-.11.04-.02.09-.03.13-.02.05.01.09.04.12.08.03.04.03.09.02.13-.01.05-.04.08-.08.11-.04.03-.09.03-.14.02Z"/>
    <path d="M96.99,44.42c-.24-.08-.43-.2-.57-.35-.14-.16-.22-.35-.25-.58-.03-.22,0-.47.09-.75l.63-1.97.22.07-.61,1.91c-.12.37-.13.69-.03.95.1.26.31.44.62.54.34.11.64.07.91-.13s.47-.49.6-.9l.55-1.71.21.07-1.02,3.16-.21-.07.37-1.15.02.08c-.16.35-.38.6-.66.75-.27.15-.57.17-.9.07Z"/>
    <path d="M99.45,45.1l1.28-3.07.21.09-.32.77v.02s-.96,2.27-.96,2.27l-.21-.09ZM102.16,43.75c.11-.27.14-.52.07-.73s-.23-.37-.48-.48c-.26-.11-.5-.09-.74.05-.24.14-.41.36-.54.65l-.07-.03c.16-.36.38-.62.65-.78.27-.16.55-.17.85-.05.19.08.34.19.44.34.1.14.15.31.16.51,0,.19-.04.4-.13.63l-.87,2.09-.21-.09.88-2.11ZM103.97,44.63c.13-.32.17-.59.1-.82-.06-.23-.23-.39-.49-.5-.26-.11-.5-.1-.74.03-.23.13-.41.34-.53.62l-.1-.04c.15-.35.37-.6.64-.75.27-.15.56-.16.86-.04.2.08.35.2.46.35.11.15.16.32.16.52,0,.2-.05.42-.15.66l-.85,2.04-.21-.09.84-2.01Z"/>
  </g>
  <g>
    <path d="M53.26,135.46l4.23-6.7c1.42-2.24.97-3.89-.62-4.45-2.47-.87-5.27,1.07-6.73,5.19-.37,1.06-.46,2.14-.2,3.08l-2.18.08c-.3-1.26-.18-2.63.27-3.91,1.8-5.08,5.71-7.55,9.67-6.15,2.11.75,4.39,3,1.96,6.93l-4.43,7.08c-2.08,3.27-2.08,6.09.26,6.92,5.41,1.91,13.53-9.2,14.94-15.27l2.28.58c-1.3,5.36-9.91,19.31-17.96,16.47-3.96-1.4-4.32-5.42-1.49-9.84Z"/>
    <path d="M70.23,142.91c.01-4.76,3.17-8.46,7.86-8.45,3.74,0,6.01,2.71,6,6.14,0,1.68-.36,3.25-1.06,4.58.35.11.87.21,1.54.21,1.4,0,3.25-.59,4.48-3.03l1.64.81c-1.3,2.76-3.75,4.12-6.62,4.11-.87,0-1.64-.18-2.27-.39-1.37,1.47-3.22,2.3-5.43,2.3-3.78,0-6.12-2.71-6.14-6.28ZM81.78,140.73c-.03-2.45-1.35-4.31-3.87-4.31-3.22,0-5.32,2.89-5.33,6.39,0,2.55,1.42,4.41,3.91,4.42,3.08,0,5.29-2.79,5.3-6.49Z"/>
    <path d="M90.32,140.27l-.36-2.26c-1.33-9.05.26-14.72,5.21-15.98,2.51-.64,4.83.54,5.49,3.12.94,3.7-1.69,10.65-8.01,15.47.74,3.31,2.84,4.62,5.65,3.9,3.36-.85,4.87-3.98,5.5-6.49l1.79.37c-.61,2.86-2.57,6.93-7.04,8.07-4.41,1.12-7.53-1.37-8.22-6.21ZM98.44,125.79c-.36-1.42-1.42-2.17-2.91-1.79-3.29.84-4.34,6.08-3.33,13.59l.11.73c5.07-4.32,6.81-9.82,6.12-12.53Z"/>
    <path d="M104.89,137.9l-1.87-6.13-2.33,1.13-.63-1.95,2.36-1.14-1.41-4.68,2.11-1.02,1.41,4.68,4.28-2.07.63,1.95-4.32,2.09,1.77,5.91c.87,3,2.33,3.61,4.35,2.64,1.92-.93,3.2-3.76,3.18-6.94h1.83c0,4.05-1.51,7.5-4.56,8.98-2.52,1.22-5.47.98-6.79-3.44Z"/>
    <path d="M114.83,133.85c-.42-.34-.93-.8-1.38-1.24l1.33-1.49.3.3c-.38-2.36-1.35-7.9.67-11.41l1.86-.06c.23,1.26,1.25,2.42,1.67,2.76,1.65,1.78,3.15,2.59,4.41,4.32,2.04,2.8,1.39,5.7-1.09,7.52-2.01,1.47-4.54,1.85-7.78-.69ZM116.02,132.16c2.31,1.74,4.01,1.88,5.34.91,1.72-1.26,1.65-3.07.4-4.8-1.14-1.55-2.63-2.41-4.09-4.12-.22-.18-.67-.68-1.08-1.25-.75,2.41-.14,5.91.32,8.26.04.23-1.06.51-1.52.46l.64.53Z"/>
  </g>
  <g>
    <g>
      <path class="cls-1" d="M88.47,95.69v2.61c0,4.33-3.51,7.85-7.85,7.85s-7.85-3.51-7.85-7.85v-2.61c1.65-2.59,4.55-4.31,7.85-4.31s6.2,1.72,7.85,4.31Z"/>
      <g>
        <g>
          <path d="M80.62,106.82c-4.7,0-8.53-3.82-8.53-8.52v-14.97c0-.05,0-.11,0-.16.02-.94.19-1.87.51-2.75.57-1.56,1.57-2.91,2.9-3.91,1.48-1.11,3.25-1.7,5.11-1.7s3.63.59,5.11,1.7c.32.24.63.51.92.8.88.88,1.56,1.95,1.99,3.11.32.88.49,1.81.51,2.76,0,.04,0,.1,0,.16v14.97c0,4.7-3.83,8.52-8.53,8.52ZM80.62,76.15c-1.57,0-3.05.49-4.3,1.43-1.12.84-1.97,1.98-2.44,3.29-.27.74-.41,1.52-.43,2.32h0c0,.05,0,.09,0,.13v14.97c0,3.95,3.22,7.17,7.18,7.17s7.18-3.22,7.18-7.17v-14.97s0-.08,0-.12c-.01-.81-.16-1.59-.43-2.33-.36-.98-.93-1.88-1.67-2.62-.24-.24-.5-.47-.77-.67-1.25-.93-2.74-1.43-4.3-1.43Z"/>
          <g>
            <g>
              <path d="M92.27,89.57c-4.1,0-8.27-2.05-12.42-6.11-.17-.17-.24-.41-.18-.64.06-.23.23-.42.46-.49l29.16-8.88c.25-.08.53,0,.7.2.18.2.22.48.11.72-.06.13-1.45,3.3-4.04,6.74-3.46,4.61-7.41,7.45-11.41,8.23-.79.15-1.58.23-2.37.23ZM81.62,83.29c4.34,3.94,8.62,5.53,12.75,4.73,4.63-.9,8.31-4.68,10.57-7.69,1.49-1.98,2.58-3.89,3.23-5.13l-26.56,8.09Z"/>
              <path d="M92.89,92.86c-.36,0-.71-.02-1.05-.05-4.65-.41-8.64-3.5-11.86-9.18-.12-.21-.12-.46,0-.67.12-.21.34-.34.58-.34l28.65-.42c.27,0,.51.15.62.38.11.24.08.52-.09.72-.09.11-2.18,2.6-5.41,5.04-3.94,2.97-7.87,4.51-11.43,4.51ZM81.74,83.95c2.87,4.64,6.3,7.17,10.22,7.51,6.72.6,13.24-5.35,15.71-7.9l-25.92.38Z"/>
            </g>
            <g>
              <path d="M68.97,89.57c-.79,0-1.58-.08-2.37-.23-4-.78-7.95-3.63-11.41-8.23-2.58-3.44-3.98-6.61-4.04-6.74-.11-.24-.06-.52.11-.72.18-.2.45-.27.7-.2l29.16,8.88c.23.07.4.25.46.49.06.23-.01.48-.18.64-4.15,4.06-8.32,6.11-12.42,6.11ZM53.06,75.2c.64,1.23,1.74,3.15,3.23,5.13,2.27,3.01,5.94,6.79,10.57,7.69,4.13.8,8.42-.79,12.75-4.73l-26.56-8.09Z"/>
              <path d="M68.34,92.86c-3.56,0-7.48-1.55-11.43-4.51-3.24-2.44-5.33-4.93-5.41-5.04-.17-.2-.2-.48-.09-.72.11-.24.36-.39.62-.38l28.65.42c.24,0,.46.13.58.34.12.21.12.46,0,.67-3.22,5.68-7.21,8.77-11.86,9.18-.35.03-.7.05-1.05.05ZM53.57,83.57c2.46,2.55,8.98,8.5,15.71,7.9,3.91-.35,7.34-2.88,10.22-7.51l-25.92-.38Z"/>
            </g>
          </g>
        </g>
        <g>
          <path d="M85.32,77.72c-.16,0-.33-.06-.45-.18-.28-.25-.29-.68-.04-.95l.24-.26c.8-.88,1.13-2.1.87-3.26l-.1-.44c-.08-.36.15-.72.52-.8.37-.08.72.15.8.52l.1.44c.35,1.59-.09,3.26-1.19,4.46l-.24.26c-.13.15-.32.22-.5.22Z"/>
          <path d="M75.91,77.72c-.18,0-.37-.07-.5-.22l-.24-.26c-1.1-1.2-1.55-2.87-1.19-4.46l.1-.44c.08-.36.44-.59.8-.51.36.08.59.44.51.8l-.1.44c-.26,1.16.07,2.38.87,3.26l.24.26c.25.28.23.7-.04.95-.13.12-.29.18-.45.18Z"/>
        </g>
      </g>
    </g>
    <polygon class="cls-2" points="82.24 92.82 78.29 99.42 80.41 98.67 79 103.2 82.95 96.6 80.82 97.35 82.24 92.82"/>
  </g>
  <g>
    <path d="M56.17,107.64l3-3.42,1.05.93c.21.19.36.39.44.6.08.21.09.42.05.64-.05.21-.16.41-.32.6-.17.19-.36.33-.57.4s-.44.08-.68.02c-.24-.06-.47-.2-.71-.41l-.82-.72.14-.16.82.72c.29.26.58.38.87.37.29-.01.54-.14.76-.39s.32-.51.3-.78c-.02-.27-.16-.52-.43-.75l-.86-.76-2.86,3.25-.18-.15Z"/>
    <path d="M59.07,110.07l1.93-2.61.18.14-.59.8-.03.04-1.31,1.77-.18-.14ZM60.31,108.67c.26-.35.54-.58.83-.69.29-.11.56-.08.8.1.06.05.11.09.15.14.04.05.07.1.1.16h0s-.13.19-.13.19c-.05-.13-.15-.24-.28-.34-.21-.15-.45-.18-.71-.09s-.5.29-.71.58l-.05-.04Z"/>
    <path d="M61.94,112.15c-.25-.16-.43-.36-.55-.61-.12-.25-.16-.52-.13-.81.03-.29.13-.57.3-.84.17-.27.38-.49.62-.64.25-.15.51-.23.78-.24s.54.07.79.22c.25.16.43.36.55.6.12.25.16.52.13.8-.03.29-.13.57-.3.84-.17.27-.38.49-.62.64-.25.16-.51.24-.78.25-.28,0-.54-.07-.79-.22ZM62.06,111.97c.21.13.44.19.67.18.24,0,.46-.08.67-.22s.39-.33.54-.57c.15-.24.24-.48.27-.73.03-.25,0-.48-.1-.69-.1-.21-.25-.39-.47-.52-.21-.13-.44-.19-.67-.19-.23,0-.46.08-.67.22-.21.14-.39.32-.54.56-.15.24-.24.49-.27.74-.03.25,0,.49.1.7.1.21.25.39.46.52Z"/>
    <path d="M64.6,113.55l1.94-3.82.24.03-1.98,3.89-.2-.1ZM65.14,110.4l.09-.17,1.93.98-.09.17-1.93-.98Z"/>
    <path d="M67.59,115.02c-.3-.12-.53-.3-.69-.53s-.26-.5-.27-.79.04-.61.17-.93c.12-.3.28-.54.49-.73.21-.19.44-.3.71-.35.27-.05.54,0,.83.11.26.1.45.25.59.44.13.19.21.4.22.64.01.24-.04.49-.14.75l-.07.18-2.48-1.01.07-.18,2.32.95-.08.07.03-.08c.09-.22.13-.43.13-.64s-.06-.39-.18-.55c-.11-.16-.28-.29-.5-.38-.24-.1-.48-.13-.7-.09s-.42.14-.59.3c-.17.16-.31.37-.42.63v.04c-.19.43-.21.82-.1,1.18.12.36.37.61.76.77.21.09.42.13.62.13s.4-.04.58-.11l-.08.2c-.18.07-.38.1-.58.1-.21,0-.42-.05-.64-.13Z"/>
    <path d="M71.15,116.24c-.3-.09-.55-.24-.73-.46-.18-.22-.3-.47-.35-.76s-.02-.59.07-.9c.09-.31.24-.57.43-.78.2-.21.43-.35.71-.43.28-.07.57-.07.87.03.2.06.37.14.51.24.14.1.26.22.35.36l-.07.24c-.1-.16-.21-.29-.35-.4-.14-.1-.3-.18-.49-.24-.27-.08-.52-.09-.76-.02-.24.07-.44.19-.61.37-.17.18-.3.41-.38.69-.08.28-.11.54-.07.8s.14.47.3.66.38.32.65.4c.19.06.38.08.56.06.18-.02.35-.06.51-.14l-.06.21c-.17.07-.34.11-.53.13s-.38-.01-.57-.07Z"/>
    <path d="M74.53,117.05c-.31-.06-.57-.19-.77-.39-.2-.2-.34-.44-.42-.72-.07-.28-.08-.59-.02-.9.06-.31.18-.59.36-.81.18-.23.4-.39.67-.49.27-.1.56-.12.87-.06.2.04.38.1.53.19.15.09.28.2.39.32l-.05.24c-.11-.15-.24-.27-.39-.36-.15-.09-.32-.15-.51-.19-.28-.05-.53-.04-.76.05-.23.09-.42.23-.57.43-.15.2-.26.44-.31.72-.06.28-.05.55,0,.8.06.25.18.46.36.63s.4.28.68.34c.2.04.38.04.56,0,.18-.03.35-.09.5-.18l-.04.22c-.16.09-.33.15-.51.17-.18.03-.38.02-.58-.02Z"/>
    <path d="M76.66,117.29l.41-3.22.23.03-.41,3.22-.23-.03ZM77.27,113.3s-.09-.03-.12-.07-.04-.08-.04-.13c0-.05.03-.08.07-.11.04-.03.08-.04.13-.03.05,0,.09.03.12.06s.04.08.04.13c0,.05-.03.09-.07.12-.04.03-.08.04-.14.04Z"/>
    <path d="M79.57,117.64c-.29-.01-.55-.1-.77-.27-.22-.16-.39-.38-.5-.65-.11-.27-.16-.56-.15-.88s.09-.61.23-.86c.14-.25.33-.45.57-.59.24-.14.5-.2.8-.19.29.01.55.1.77.26.22.16.39.37.5.64.11.27.16.56.15.88-.02.32-.09.61-.23.86-.14.26-.33.45-.57.59-.24.14-.5.2-.8.19ZM79.58,117.42c.25.01.48-.04.68-.16.2-.12.36-.3.48-.52.12-.22.18-.48.2-.76.01-.28-.03-.54-.12-.77-.09-.23-.24-.42-.42-.56s-.41-.22-.66-.23c-.25-.01-.48.04-.68.16-.2.12-.36.29-.48.51-.12.22-.19.47-.2.75-.01.28.03.54.12.77.1.23.24.42.43.56.19.14.41.22.66.23ZM79.65,113.86l.49-.8h.23s-.53.8-.53.8h-.18Z"/>
    <path d="M82.33,117.6l-.19-3.24h.23s.06,1.03.06,1.03v.03s.13,2.17.13,2.17h-.23ZM84.57,115.53c-.02-.39-.12-.69-.3-.88s-.43-.28-.76-.26c-.35.02-.62.17-.81.43-.19.27-.27.61-.25,1.01l-.06-.22c0-.41.1-.75.31-1.01.21-.26.5-.4.86-.42.25-.01.46.03.64.13.18.1.32.25.42.44.1.2.16.44.17.72l.12,1.98h-.23s-.11-1.92-.11-1.92Z"/>
    <path d="M90.1,116.69c-.42.1-.82.08-1.19-.05-.37-.13-.69-.36-.95-.67-.26-.31-.44-.69-.54-1.12-.1-.44-.1-.86,0-1.26.1-.4.3-.74.59-1.02.29-.28.65-.47,1.07-.57.27-.06.52-.08.76-.06s.46.07.67.16l.06.26c-.21-.1-.42-.16-.66-.19s-.49,0-.76.05c-.39.09-.71.26-.97.51-.26.25-.43.56-.52.92-.09.36-.09.74,0,1.13.09.39.25.73.48,1.02.23.29.52.49.85.61.33.12.69.14,1.06.05.27-.06.52-.16.74-.3.22-.14.4-.31.54-.5l.06.25c-.15.19-.34.36-.55.49-.22.13-.46.23-.73.29Z"/>
    <path d="M93.78,115.56c-.28.1-.55.11-.82.05-.27-.07-.5-.2-.71-.41-.21-.2-.37-.46-.47-.76-.11-.3-.14-.6-.11-.88.03-.29.13-.54.3-.76.17-.22.39-.38.67-.47.28-.1.55-.12.82-.05.27.06.5.2.71.4.21.2.36.45.47.76.11.3.14.6.11.89-.03.29-.13.54-.3.76-.17.22-.39.38-.66.48ZM93.71,115.36c.24-.08.42-.22.56-.41.14-.19.22-.41.24-.66.02-.25-.01-.51-.11-.78-.09-.27-.23-.49-.41-.67-.18-.18-.38-.3-.6-.35s-.46-.04-.7.04c-.24.08-.43.22-.57.41-.14.19-.22.41-.25.66-.03.25,0,.51.1.77.09.27.23.49.41.67.18.18.38.3.61.36.23.06.46.05.7-.04Z"/>
    <path d="M96.32,114.47l-1.41-2.92.2-.1.46.94v.02s.96,1.96.96,1.96l-.2.1ZM97.6,111.71c-.17-.35-.38-.59-.61-.7-.24-.11-.5-.1-.8.05-.32.15-.51.39-.58.71-.07.32-.02.66.16,1.03l-.14-.18c-.16-.38-.19-.73-.1-1.05s.3-.56.64-.72c.22-.11.43-.15.64-.13.2.02.39.11.55.25.17.15.31.34.43.6l.87,1.79-.2.1-.84-1.74Z"/>
    <path d="M97.89,110.31l-.1-.17,1.65-1.03.1.17-1.65,1.03ZM100.01,112.58l-1.93-3.09-.04-.07c-.17-.28-.24-.54-.2-.77s.18-.42.41-.56c.11-.07.21-.11.32-.14s.21-.03.3-.03l.11.18c-.1-.02-.2-.01-.3.01-.1.02-.21.07-.31.13-.18.11-.29.26-.32.43-.03.18.02.37.15.59l.05.08,1.94,3.11-.19.12ZM99.71,108.02s-.08.03-.13.02c-.05-.01-.08-.04-.11-.08s-.03-.08-.02-.13c.01-.05.04-.08.08-.11.04-.03.09-.04.14-.03.05,0,.08.03.11.07s.03.08.02.13c-.01.05-.04.09-.08.11ZM101.75,111.5l-1.72-2.76.19-.12,1.72,2.76-.19.12Z"/>
    <path d="M103.9,110.05c-.17.13-.35.22-.54.25-.19.03-.37.02-.54-.05-.17-.06-.31-.17-.42-.32s-.18-.31-.2-.49c-.02-.18.02-.36.1-.53.09-.18.22-.33.4-.47.22-.17.45-.26.7-.26.24,0,.43.08.58.24l.06.14-.63-.82c-.21-.27-.44-.43-.69-.47-.25-.04-.5.03-.75.22-.17.13-.29.28-.38.46-.08.17-.13.36-.14.54l-.15-.2c.02-.17.07-.34.16-.52s.22-.33.4-.47c.19-.15.39-.24.59-.27.2-.03.4,0,.59.1.19.09.37.24.53.45l1.28,1.65-.17.14-.57-.73.12.07c.13.22.16.46.11.71s-.19.47-.42.64ZM103.83,109.86c.14-.11.25-.24.31-.39.07-.15.1-.31.08-.46s-.07-.29-.16-.41c-.14-.18-.33-.28-.56-.28-.23,0-.45.07-.66.23-.23.18-.37.38-.41.61-.05.23,0,.44.15.63.15.19.34.29.57.31s.46-.06.68-.23Z"/>
    <path d="M107.08,107.34c-.25.24-.54.35-.88.34-.34-.01-.66-.13-.97-.36l-.04-.12.91.95-.16.16-3.23-3.38.16-.16,1.9,1.99-.12-.06c-.14-.2-.23-.42-.28-.64-.05-.22-.04-.44.02-.66.06-.21.18-.4.35-.57.2-.19.43-.31.69-.34.26-.04.52,0,.78.1s.51.27.73.5c.23.24.39.5.48.77.09.28.11.55.05.81-.06.26-.18.49-.38.68ZM106.91,107.21c.18-.17.3-.37.34-.6.05-.23.03-.46-.06-.7-.08-.24-.22-.46-.42-.66-.19-.2-.41-.35-.64-.45-.23-.1-.46-.13-.69-.09s-.43.13-.6.3c-.18.18-.3.38-.35.61-.05.23-.03.46.06.7.08.24.22.46.42.66s.41.35.64.45c.23.1.46.13.69.09.23-.03.43-.13.61-.3Z"/>
    <path d="M108.85,105.37l-3.49-3.12.15-.17,3.49,3.12-.15.17Z"/>
    <path d="M110.84,103.13c-.2.25-.43.43-.69.53s-.55.12-.84.05c-.29-.06-.57-.2-.85-.41-.25-.2-.44-.42-.57-.67s-.18-.51-.15-.78c.03-.27.14-.53.33-.77.17-.22.36-.37.58-.45s.44-.09.67-.04c.23.05.46.17.68.34l.15.12-1.64,2.12-.15-.12,1.53-1.99.04.09-.07-.05c-.19-.15-.38-.24-.58-.29-.2-.05-.39-.04-.57.03-.18.07-.35.19-.5.38-.16.21-.25.43-.27.65-.02.22.03.44.14.65s.28.4.5.58l.03.02c.37.28.74.41,1.12.39s.69-.19.95-.52c.14-.18.24-.37.29-.57s.07-.39.05-.59l.17.13c.02.19,0,.39-.06.59-.06.2-.16.39-.3.58Z"/>
  </g>
  <g>
    <path class="cls-3" d="M155.85,90.13c-4.42,38.09-36.68,66.83-75.02,66.83S12.17,130.06,6.26,93.46"/>
    <path class="cls-2" d="M44.06,90.98c.08,3.82-5.13,3.84-5.05,0h-8.57c-.89-.22-1.3-.9-1.16-2.09-3.68.33-5.49-1.22-5.37-4.71h-2.16c-.39-.03-.64-.25-.73-.66v-4.28c.09-.42.33-.63.73-.66h2.16c-.13-3.49,1.68-5.04,5.37-4.71-.14-1.18.26-1.86,1.16-2.09h8.57c-.08-3.84,5.13-3.82,5.05,0l.02,9.6-.02,9.6Z"/>
    <g>
      <path class="cls-2" d="M144.26,79.22c-.07-.22-.23-.36-.54-.37h-2.52c-1.37-5.94-5.81-7.42-11.93-6.45-.06-3.6-5.02-3.93-5.19,0v18.08c.17,3.93,5.13,3.6,5.19,0,6.12.97,10.56-.51,11.93-6.45h2.52c.31-.01.47-.15.54-.37v-2.22s0-2.22,0-2.22Z"/>
      <path class="cls-2" d="M122.88,74.36h-7.77c-.73,0-1.32.59-1.32,1.32h0c0,.73.59,1.32,1.32,1.32h7.77v-2.64Z"/>
      <path class="cls-2" d="M122.88,84.97h-7.77c-.73,0-1.32.59-1.32,1.32h0c0,.73.59,1.32,1.32,1.32h7.77v-2.64Z"/>
    </g>
    <path class="cls-3" d="M142.84,81.43c9.03.62,13.09-3.93,12.59-11.83"/>
    <path class="cls-3" d="M20.82,81.43c-9.03-.62-15.19,4.32-14.56,12.03"/>
    <path class="cls-3" d="M155.43,69.6C151.01,31.51,118.75,2.78,80.41,2.78S11.75,29.68,5.84,66.27"/>
  </g>
</svg>